<svg xmlns="http://www.w3.org/2000/svg" viewBox="0 0 64 64" width="64" height="64">
  <defs>
    <linearGradient id="g" x1="0" y1="0" x2="1" y2="1">
      <stop offset="0%" stop-color="#FF4D5E"/>
      <stop offset="100%" stop-color="#C81E2C"/>
    </linearGradient>
  </defs>
  <circle cx="32" cy="32" r="30" fill="url(#g)"/>
  <g fill="#fff" transform="translate(12,10)">
    <path d="M20.6 8.2c.9-1.7 3.2-1.7 4.1 0l9.5 18.6c.8 1.5-.3 3.2-2.1 3.2H13.2c-1.8 0-2.9-1.7-2.1-3.2l9.5-18.6z"/>
    <path d="M9.4 33.5c.6-1.1 2.1-1.1 2.7 0l3.6 7.2c.5 1-.2 2.1-1.3 2.1H7.1c-1.1 0-1.8-1.1-1.3-2.1l3.6-7.2z"/>
  </g>
</svg>